<?xml version="1.0" encoding="UTF-8"?>
<svg width="32" height="32" xmlns="http://www.w3.org/2000/svg">

 <g>
  <title>Layer 1</title>
  <path fill="#ffffff" id="svg_2" d="m15.962,0.489c-8.419,0 -15.27,6.851 -15.27,15.27c0,7.268001 5.107,13.363 11.921,14.896001c-0.787,-0.76 -1.339,-1.758001 -1.541,-2.878c-4.738999,-1.935001 -8.088,-6.591 -8.088,-12.018001c0,-5.245 3.129,-9.77 7.617,-11.813c-0.177999,1.013 0.582,2.18 1.447001,3.227c0.783,0.947 0.447,1.662 -0.157001,2.162c-0.19,0.157 -0.262,0.416 -0.179999,0.649c0.082,0.231999 0.299999,0.389 0.546,0.393c7.777,0.116 9.667999,-4.306 10.098,-5.904c3.928001,2.233 6.583,6.454 6.583,11.286c0,5.139001 -3.003,9.590001 -7.346001,11.691001c-0.133999,1.137999 -0.627998,2.164 -1.362999,2.966999c6.348,-1.851999 11.000999,-7.719999 11.000999,-14.658c0.002001,-8.419 -6.848,-15.27 -15.268,-15.27z"/>
  <circle fill="#ffffff" id="svg_3" r="1.719" cy="15.39" cx="11.891"/>
  <circle fill="#ffffff" id="svg_4" r="1.719" cy="15.39" cx="19.913"/>
  <path fill="#ffffff" id="svg_5" d="m11.24,25.200001c0.396,-1.230001 1.229,-2.261002 2.312,-2.919001c0.085999,-1.406 1.238,-2.521 2.65,-2.521c1.368,0 2.493999,1.044001 2.641001,2.386999c1.199999,0.652 2.121,1.753 2.541,3.075001c0.688,-0.717001 1.091999,-1.587 1.091999,-2.525c0,-2.454 -2.754999,-4.442001 -6.152,-4.442001c-3.398,0 -6.153,1.988001 -6.153,4.442001c0,0.928999 0.395,1.789 1.069,2.503z"/>
  <path fill="#ffffff" id="svg_6" d="m16.9,25.039c-0.185999,-0.062 -0.386,-0.097 -0.591999,-0.097c-0.225,0 -0.439,0.042 -0.639001,0.114c0.178,0.046 0.147,0.054001 -0.038,0.013c-0.705999,0.274 -1.21,0.958 -1.21,1.76c0,0.031 0.003,0.063 0.005,0.094c0.598001,0.139999 1.234,0.216 1.897,0.216c0.65,0 1.276001,-0.073999 1.865,-0.208c0.000999,-0.034 0.005001,-0.066999 0.005001,-0.101999c0.000999,-0.834 -0.543001,-1.541 -1.293001,-1.790001z"/>
  <path fill="#ffffff" id="svg_7" d="m16.252001,20.548c-0.959001,0 -1.779001,0.59 -2.121001,1.424999c0.665,-0.299999 1.401,-0.470999 2.178,-0.470999c0.722,0 1.41,0.146999 2.038,0.407999c-0.358,-0.801001 -1.16,-1.362 -2.094999,-1.362z"/>
  <path fill="#ffffff" id="svg_8" d="m16.309,22.077c-2.62,0 -4.752,2.132 -4.752,4.752001c0,2.618999 2.132,4.751999 4.752,4.751999c2.618999,0 4.750999,-2.132 4.750999,-4.751999c0,-2.621 -2.132,-4.752001 -4.750999,-4.752001zm0,7.211c-1.357,0 -2.46,-1.103001 -2.46,-2.459c0,-1.356001 1.104,-2.460001 2.46,-2.460001c1.356001,0 2.459,1.104 2.459,2.460001c0,1.355999 -1.102999,2.459 -2.459,2.459z"/>
 </g>
</svg>